<svg xmlns="http://www.w3.org/2000/svg" xmlns:xlink="http://www.w3.org/1999/xlink" width="2000" zoomAndPan="magnify" viewBox="0 0 1500 1499.999933" height="2000" preserveAspectRatio="xMidYMid meet" version="1.0"><defs><g/><clipPath id="e47a179447"><rect x="0" width="860" y="0" height="1268"/></clipPath><clipPath id="2984f94fc7"><rect x="0" width="860" y="0" height="1268"/></clipPath><clipPath id="fd33e65fe5"><path d="M 832 744 L 1084 744 L 1084 968 L 832 968 Z M 832 744 " clip-rule="nonzero"/></clipPath><clipPath id="5134e102e3"><path d="M 832.308594 830.476562 L 1021.371094 744.160156 L 1083.941406 881.210938 L 894.882812 967.527344 Z M 832.308594 830.476562 " clip-rule="nonzero"/></clipPath><clipPath id="73590118e0"><path d="M 0.078125 0 L 252 0 L 252 223.679688 L 0.078125 223.679688 Z M 0.078125 0 " clip-rule="nonzero"/></clipPath><clipPath id="b85400eeb8"><path d="M 0.308594 86.476562 L 189.371094 0.160156 L 251.941406 137.210938 L 62.882812 223.527344 Z M 0.308594 86.476562 " clip-rule="nonzero"/></clipPath><clipPath id="ee35e10dfc"><rect x="0" width="252" y="0" height="224"/></clipPath><clipPath id="ec6ddf1a45"><path d="M 919 778 L 1169 778 L 1169 997 L 919 997 Z M 919 778 " clip-rule="nonzero"/></clipPath><clipPath id="72fcbdf30d"><path d="M 976.054688 778.621094 L 1168.6875 856.636719 L 1112.132812 996.277344 L 919.5 918.265625 Z M 976.054688 778.621094 " clip-rule="nonzero"/></clipPath><clipPath id="0b7fd44478"><path d="M 0.441406 0.558594 L 249.800781 0.558594 L 249.800781 218.480469 L 0.441406 218.480469 Z M 0.441406 0.558594 " clip-rule="nonzero"/></clipPath><clipPath id="64025b2b4c"><path d="M 57.054688 0.621094 L 249.6875 78.636719 L 193.132812 218.277344 L 0.5 140.265625 Z M 57.054688 0.621094 " clip-rule="nonzero"/></clipPath><clipPath id="e57141aaa4"><rect x="0" width="250" y="0" height="219"/></clipPath><clipPath id="ab1f3d48b1"><path d="M 555 828 L 808 828 L 808 1054 L 555 1054 Z M 555 828 " clip-rule="nonzero"/></clipPath><clipPath id="c3f45264c3"><path d="M 555.53125 916.882812 L 743.488281 828.191406 L 807.78125 964.441406 L 619.824219 1053.132812 Z M 555.53125 916.882812 " clip-rule="nonzero"/></clipPath><clipPath id="ce525c412f"><path d="M 0.359375 0 L 252.839844 0 L 252.839844 225.359375 L 0.359375 225.359375 Z M 0.359375 0 " clip-rule="nonzero"/></clipPath><clipPath id="9ced22ce0b"><path d="M 0.53125 88.882812 L 188.488281 0.191406 L 252.78125 136.441406 L 64.824219 225.132812 Z M 0.53125 88.882812 " clip-rule="nonzero"/></clipPath><clipPath id="a6cec8ccac"><rect x="0" width="253" y="0" height="226"/></clipPath><clipPath id="7d65c5f989"><path d="M 701 489 L 1097 489 L 1097 1100 L 701 1100 Z M 701 489 " clip-rule="nonzero"/></clipPath><clipPath id="86f69a7641"><path d="M 701.46875 556.878906 L 847.691406 489.761719 L 1096.8125 1032.488281 L 950.589844 1099.609375 Z M 701.46875 556.878906 " clip-rule="nonzero"/></clipPath><clipPath id="5c1697598d"><path d="M 0.28125 0.601562 L 396 0.601562 L 396 610.679688 L 0.28125 610.679688 Z M 0.28125 0.601562 " clip-rule="nonzero"/></clipPath><clipPath id="d4aabd03ad"><path d="M 0.46875 67.878906 L 146.691406 0.761719 L 395.8125 543.488281 L 249.589844 610.609375 Z M 0.46875 67.878906 " clip-rule="nonzero"/></clipPath><clipPath id="2dd0546102"><rect x="0" width="396" y="0" height="611"/></clipPath><clipPath id="e8bcdaba4a"><path d="M 349.210938 594.9375 L 633.140625 594.9375 L 633.140625 770.859375 L 349.210938 770.859375 Z M 349.210938 594.9375 " clip-rule="nonzero"/></clipPath><clipPath id="e7db4f2346"><path d="M 0.210938 0.9375 L 284.140625 0.9375 L 284.140625 176.859375 L 0.210938 176.859375 Z M 0.210938 0.9375 " clip-rule="nonzero"/></clipPath><clipPath id="5a3b3f6512"><rect x="0" width="285" y="0" height="177"/></clipPath><clipPath id="a9e54121ca"><path d="M 604 595 L 1004 595 L 1004 1361 L 604 1361 Z M 604 595 " clip-rule="nonzero"/></clipPath><clipPath id="2d1878a182"><path d="M 973.8125 1360.789062 L 604.324219 609.792969 L 634.171875 595.105469 L 1003.660156 1346.101562 Z M 973.8125 1360.789062 " clip-rule="nonzero"/></clipPath><clipPath id="136b18a203"><path d="M 0.320312 0 L 399.679688 0 L 399.679688 765.800781 L 0.320312 765.800781 Z M 0.320312 0 " clip-rule="nonzero"/></clipPath><clipPath id="3c9b20bbc1"><path d="M 369.8125 765.789062 L 0.324219 14.792969 L 30.171875 0.105469 L 399.660156 751.101562 Z M 369.8125 765.789062 " clip-rule="nonzero"/></clipPath><clipPath id="2fe0509bcf"><rect x="0" width="400" y="0" height="766"/></clipPath><clipPath id="391f911880"><path d="M 756 669 L 1033 669 L 1033 1248 L 756 1248 Z M 756 669 " clip-rule="nonzero"/></clipPath><clipPath id="4d091bd0ca"><path d="M 756 675.789062 L 770.457031 669.152344 L 1032.84375 1240.78125 L 1018.382812 1247.417969 Z M 756 675.789062 " clip-rule="nonzero"/></clipPath><clipPath id="8b01ac342d"><path d="M 0 0.121094 L 276.960938 0.121094 L 276.960938 578.519531 L 0 578.519531 Z M 0 0.121094 " clip-rule="nonzero"/></clipPath><clipPath id="8e34685223"><path d="M 0 6.789062 L 14.457031 0.152344 L 276.84375 571.78125 L 262.382812 578.417969 Z M 0 6.789062 " clip-rule="nonzero"/></clipPath><clipPath id="50c968f1c7"><rect x="0" width="277" y="0" height="579"/></clipPath><clipPath id="078fba2a6f"><path d="M 1004 1188 L 1054 1188 L 1054 1260 L 1004 1260 Z M 1004 1188 " clip-rule="nonzero"/></clipPath><clipPath id="5f74fe6085"><path d="M 1030.015625 1188.980469 L 1053.632812 1198.808594 L 1028.289062 1259.703125 L 1004.671875 1249.871094 Z M 1030.015625 1188.980469 " clip-rule="nonzero"/></clipPath><clipPath id="ebb7a9e28d"><path d="M 0.640625 0.960938 L 49.839844 0.960938 L 49.839844 71.761719 L 0.640625 71.761719 Z M 0.640625 0.960938 " clip-rule="nonzero"/></clipPath><clipPath id="038f058bcf"><path d="M 26.015625 0.980469 L 49.632812 10.808594 L 24.289062 71.703125 L 0.671875 61.871094 Z M 26.015625 0.980469 " clip-rule="nonzero"/></clipPath><clipPath id="d845f5cd1f"><rect x="0" width="50" y="0" height="72"/></clipPath><clipPath id="e1f01bd6dd"><path d="M 1171 450 L 1243 450 L 1243 571.929688 L 1171 571.929688 Z M 1171 450 " clip-rule="nonzero"/></clipPath><clipPath id="4404ae3d62"><path d="M 1208 343.929688 L 1287 343.929688 L 1287 408 L 1208 408 Z M 1208 343.929688 " clip-rule="nonzero"/></clipPath><clipPath id="37bcca2579"><path d="M 1269 412 L 1383.9375 412 L 1383.9375 536 L 1269 536 Z M 1269 412 " clip-rule="nonzero"/></clipPath></defs><rect x="-150" width="1800" fill="#ffffff" y="-149.999993" height="1799.99992" fill-opacity="1"/><rect x="-150" width="1800" fill="#ffffff" y="-149.999993" height="1799.99992" fill-opacity="1"/><g transform="matrix(1, 0, 0, 1, 558, 232)"><g clip-path="url(#e47a179447)"><g fill="#000000" fill-opacity="1"><g transform="translate(839.914473, 342.771002)"><g><path d="M -833.46875 14.3125 C -836.644531 14.3125 -838.234375 11.925781 -838.234375 7.15625 C -838.234375 2.382812 -836.644531 0 -833.46875 0 C -818.363281 0 -794.914062 0.796875 -763.125 2.390625 C -731.320312 3.972656 -708.269531 4.765625 -693.96875 4.765625 C -676.476562 4.765625 -654.21875 3.972656 -627.1875 2.390625 C -601.75 0.796875 -582.273438 0 -568.765625 0 C -565.585938 0 -564 2.382812 -564 7.15625 C -564 11.925781 -565.585938 14.3125 -568.765625 14.3125 C -598.171875 14.3125 -619.628906 17.09375 -633.140625 22.65625 C -646.660156 28.21875 -653.421875 37.753906 -653.421875 51.265625 C -653.421875 62.398438 -648.253906 79.492188 -637.921875 102.546875 L -531.796875 327.90625 L -248.015625 327.90625 L -172.890625 151.4375 C -161.765625 124.40625 -156.203125 102.539062 -156.203125 85.84375 C -156.203125 61.207031 -165.9375 43.125 -185.40625 31.59375 C -204.882812 20.070312 -234.097656 14.3125 -273.046875 14.3125 C -277.023438 14.3125 -279.015625 11.925781 -279.015625 7.15625 C -279.015625 2.382812 -277.023438 0 -273.046875 0 C -258.742188 0 -238.078125 0.796875 -211.046875 2.390625 C -180.835938 3.972656 -154.609375 4.765625 -132.359375 4.765625 C -111.691406 4.765625 -87.84375 3.972656 -60.8125 2.390625 C -36.96875 0.796875 -17.09375 0 -1.1875 0 C 2.78125 0 4.765625 2.382812 4.765625 7.15625 C 4.765625 11.925781 2.78125 14.3125 -1.1875 14.3125 C -23.445312 14.3125 -42.328125 18.484375 -57.828125 26.828125 C -73.328125 35.171875 -88.03125 49.875 -101.9375 70.9375 C -115.851562 92.007812 -131.160156 122.414062 -147.859375 162.15625 L -399.453125 755.96875 C -401.035156 758.351562 -403.8125 759.546875 -407.78125 759.546875 C -411.757812 759.546875 -414.148438 758.351562 -414.953125 755.96875 L -696.34375 163.359375 C -723.375 104.535156 -746.425781 64.988281 -765.5 44.71875 C -784.582031 24.445312 -807.238281 14.3125 -833.46875 14.3125 Z M -257.546875 351.75 L -521.0625 351.75 L -381.5625 646.265625 Z M -257.546875 351.75 "/></g></g></g></g></g><g transform="matrix(1, 0, 0, 1, 82, 0.000000000000112861)"><g clip-path="url(#2984f94fc7)"><g fill="#000000" fill-opacity="1"><g transform="translate(20.079478, 925.226585)"><g><path d="M 833.46875 -14.3125 C 836.644531 -14.3125 838.234375 -11.925781 838.234375 -7.15625 C 838.234375 -2.382812 836.644531 0 833.46875 0 C 818.363281 0 794.914062 -0.796875 763.125 -2.390625 C 731.320312 -3.972656 708.269531 -4.765625 693.96875 -4.765625 C 676.476562 -4.765625 654.21875 -3.972656 627.1875 -2.390625 C 601.75 -0.796875 582.273438 0 568.765625 0 C 565.585938 0 564 -2.382812 564 -7.15625 C 564 -11.925781 565.585938 -14.3125 568.765625 -14.3125 C 598.171875 -14.3125 619.628906 -17.09375 633.140625 -22.65625 C 646.660156 -28.21875 653.421875 -37.753906 653.421875 -51.265625 C 653.421875 -62.398438 648.253906 -79.492188 637.921875 -102.546875 L 531.796875 -327.90625 L 248.015625 -327.90625 L 172.890625 -151.4375 C 161.765625 -124.40625 156.203125 -102.539062 156.203125 -85.84375 C 156.203125 -61.207031 165.9375 -43.125 185.40625 -31.59375 C 204.882812 -20.070312 234.097656 -14.3125 273.046875 -14.3125 C 277.023438 -14.3125 279.015625 -11.925781 279.015625 -7.15625 C 279.015625 -2.382812 277.023438 0 273.046875 0 C 258.742188 0 238.078125 -0.796875 211.046875 -2.390625 C 180.835938 -3.972656 154.609375 -4.765625 132.359375 -4.765625 C 111.691406 -4.765625 87.84375 -3.972656 60.8125 -2.390625 C 36.96875 -0.796875 17.09375 0 1.1875 0 C -2.78125 0 -4.765625 -2.382812 -4.765625 -7.15625 C -4.765625 -11.925781 -2.78125 -14.3125 1.1875 -14.3125 C 23.445312 -14.3125 42.328125 -18.484375 57.828125 -26.828125 C 73.328125 -35.171875 88.03125 -49.875 101.9375 -70.9375 C 115.851562 -92.007812 131.160156 -122.414062 147.859375 -162.15625 L 399.453125 -755.96875 C 401.035156 -758.351562 403.8125 -759.546875 407.78125 -759.546875 C 411.757812 -759.546875 414.148438 -758.351562 414.953125 -755.96875 L 696.34375 -163.359375 C 723.375 -104.535156 746.425781 -64.988281 765.5 -44.71875 C 784.582031 -24.445312 807.238281 -14.3125 833.46875 -14.3125 Z M 257.546875 -351.75 L 521.0625 -351.75 L 381.5625 -646.265625 Z M 257.546875 -351.75 "/></g></g></g></g></g><g clip-path="url(#fd33e65fe5)"><g clip-path="url(#5134e102e3)"><g transform="matrix(1, 0, 0, 1, 832, 744)"><g clip-path="url(#ee35e10dfc)"><g clip-path="url(#73590118e0)"><g clip-path="url(#b85400eeb8)"><path fill="#ffffff" d="M 0.308594 86.476562 L 189.289062 0.199219 L 251.859375 137.25 L 62.882812 223.527344 Z M 0.308594 86.476562 " fill-opacity="1" fill-rule="nonzero"/></g></g></g></g></g></g><g clip-path="url(#ec6ddf1a45)"><g clip-path="url(#72fcbdf30d)"><g transform="matrix(1, 0, 0, 1, 919, 778)"><g clip-path="url(#e57141aaa4)"><g clip-path="url(#0b7fd44478)"><g clip-path="url(#64025b2b4c)"><path fill="#ffffff" d="M 57.054688 0.621094 L 249.605469 78.601562 L 193.054688 218.246094 L 0.5 140.265625 Z M 57.054688 0.621094 " fill-opacity="1" fill-rule="nonzero"/></g></g></g></g></g></g><g clip-path="url(#ab1f3d48b1)"><g clip-path="url(#c3f45264c3)"><g transform="matrix(1, 0, 0, 1, 555, 828)"><g clip-path="url(#a6cec8ccac)"><g clip-path="url(#ce525c412f)"><g clip-path="url(#9ced22ce0b)"><path fill="#ffffff" d="M 0.53125 88.882812 L 188.410156 0.230469 L 252.703125 136.480469 L 64.824219 225.132812 Z M 0.53125 88.882812 " fill-opacity="1" fill-rule="nonzero"/></g></g></g></g></g></g><g clip-path="url(#7d65c5f989)"><g clip-path="url(#86f69a7641)"><g transform="matrix(1, 0, 0, 1, 701, 489)"><g clip-path="url(#2dd0546102)"><g clip-path="url(#5c1697598d)"><g clip-path="url(#d4aabd03ad)"><path fill="#ffffff" d="M 0.46875 67.878906 L 146.691406 0.761719 L 395.761719 543.382812 L 249.539062 610.503906 Z M 0.46875 67.878906 " fill-opacity="1" fill-rule="nonzero"/></g></g></g></g></g></g><g clip-path="url(#e8bcdaba4a)"><g transform="matrix(1, 0, 0, 1, 349, 594)"><g clip-path="url(#5a3b3f6512)"><g clip-path="url(#e7db4f2346)"><path fill="#ffffff" d="M 0.210938 0.9375 L 284.027344 0.9375 L 284.027344 176.859375 L 0.210938 176.859375 Z M 0.210938 0.9375 " fill-opacity="1" fill-rule="nonzero"/></g></g></g></g><g clip-path="url(#a9e54121ca)"><g clip-path="url(#2d1878a182)"><g transform="matrix(1, 0, 0, 1, 604, 595)"><g clip-path="url(#2fe0509bcf)"><g clip-path="url(#136b18a203)"><g clip-path="url(#3c9b20bbc1)"><path fill="#ffffff" d="M 369.8125 765.789062 L 0.324219 14.789062 L 30.171875 0.101562 L 399.660156 751.101562 Z M 369.8125 765.789062 " fill-opacity="1" fill-rule="nonzero"/></g></g></g></g></g></g><g clip-path="url(#391f911880)"><g clip-path="url(#4d091bd0ca)"><g transform="matrix(1, 0, 0, 1, 756, 669)"><g clip-path="url(#50c968f1c7)"><g clip-path="url(#8b01ac342d)"><g clip-path="url(#8e34685223)"><path fill="#ffffff" d="M 0 6.789062 L 14.457031 0.152344 L 276.832031 571.761719 L 262.375 578.398438 Z M 0 6.789062 " fill-opacity="1" fill-rule="nonzero"/></g></g></g></g></g></g><g clip-path="url(#078fba2a6f)"><g clip-path="url(#5f74fe6085)"><g transform="matrix(1, 0, 0, 1, 1004, 1188)"><g clip-path="url(#d845f5cd1f)"><g clip-path="url(#ebb7a9e28d)"><g clip-path="url(#038f058bcf)"><path fill="#000000" d="M 26.015625 0.980469 L 49.632812 10.808594 L 24.292969 71.695312 L 0.675781 61.867188 Z M 26.015625 0.980469 " fill-opacity="1" fill-rule="nonzero"/></g></g></g></g></g></g><g clip-path="url(#e1f01bd6dd)"><path fill="#000000" d="M 1180.34375 553.371094 L 1180.335938 553.386719 C 1180.308594 553.433594 1180.28125 553.476562 1180.257812 553.519531 L 1180.210938 553.519531 C 1179.976562 553.675781 1179.785156 553.804688 1179.640625 553.90625 L 1179.621094 553.90625 C 1179.785156 553.765625 1180.011719 553.589844 1180.296875 553.371094 L 1180.34375 553.371094 M 1181.113281 565.109375 L 1181.261719 565.140625 C 1181.652344 565.222656 1182.039062 565.300781 1182.425781 565.378906 L 1182.378906 565.378906 C 1182.519531 565.472656 1182.710938 565.59375 1182.953125 565.734375 C 1182.800781 565.695312 1182.652344 565.652344 1182.507812 565.605469 C 1182.363281 565.5625 1182.21875 565.515625 1182.078125 565.472656 L 1181.867188 565.402344 C 1181.589844 565.308594 1181.324219 565.210938 1181.070312 565.109375 L 1181.113281 565.109375 M 1190.785156 450.230469 L 1190.355469 450.257812 C 1188.945312 450.535156 1188.160156 451.378906 1188.007812 452.792969 C 1187.789062 453.417969 1188.222656 455.871094 1189.308594 460.15625 C 1202.667969 504.375 1211.335938 532.117188 1215.308594 543.382812 C 1216.140625 546.304688 1216.578125 548.449219 1216.617188 549.8125 C 1216.636719 550.484375 1216.546875 551.199219 1216.351562 551.953125 C 1213.011719 546.414062 1206.535156 543.464844 1196.917969 543.117188 C 1189.808594 542.855469 1182.945312 545.265625 1176.320312 550.347656 C 1171.269531 554.6875 1170.171875 559.632812 1173.03125 565.183594 C 1176.496094 569.6875 1183.457031 571.859375 1193.917969 571.707031 C 1200.300781 571.75 1206.933594 569.050781 1213.816406 563.613281 C 1216.605469 561.246094 1218.636719 558.8125 1219.90625 556.304688 C 1221.15625 553.367188 1221.683594 551.230469 1221.492188 549.886719 C 1221.460938 548.007812 1220.941406 545.328125 1219.933594 541.851562 C 1216.070312 530.996094 1207.292969 502.820312 1193.59375 457.324219 C 1197.570312 460.328125 1201.875 462.285156 1206.5 463.195312 C 1213.167969 464.300781 1221.746094 465.355469 1232.226562 466.355469 L 1236.511719 467.472656 L 1239.929688 468.964844 C 1241.71875 468.828125 1242.605469 467.960938 1242.59375 466.367188 C 1242.390625 465.222656 1241.804688 464.464844 1240.839844 464.101562 C 1239.8125 463.386719 1237.585938 462.617188 1234.164062 461.789062 L 1210.351562 458.953125 C 1207.914062 458.640625 1205.867188 458.179688 1204.214844 457.574219 C 1201.386719 456.742188 1197.679688 454.484375 1193.085938 450.800781 L 1191.953125 450.453125 C 1192.746094 450.597656 1192.761719 450.574219 1192.003906 450.382812 C 1191.613281 450.289062 1191.207031 450.238281 1190.785156 450.230469 " fill-opacity="0.996" fill-rule="nonzero"/></g><g clip-path="url(#4404ae3d62)"><path fill="#000000" d="M 1282.652344 356.921875 L 1282.625 356.921875 C 1282.625 356.921875 1282.628906 356.921875 1282.628906 356.921875 Z M 1222.429688 391.949219 C 1224.019531 391.949219 1225.609375 392.289062 1227.195312 392.964844 L 1227.148438 392.964844 C 1226.589844 394.816406 1226.066406 396.125 1225.574219 396.898438 L 1225.527344 396.898438 C 1222.359375 399.859375 1218.992188 401.421875 1215.421875 401.589844 C 1213.9375 401.339844 1213.304688 400.074219 1213.519531 397.789062 L 1213.476562 397.789062 C 1214.242188 395.335938 1216.023438 393.585938 1218.808594 392.535156 L 1218.800781 392.535156 C 1220.011719 392.144531 1221.222656 391.949219 1222.429688 391.949219 Z M 1242.480469 343.9375 C 1241.503906 343.9375 1240.703125 344.046875 1240.066406 344.269531 C 1239.574219 344.441406 1239.148438 344.675781 1238.785156 344.980469 L 1238.773438 344.980469 C 1238.511719 345.179688 1238.265625 345.417969 1238.042969 345.695312 C 1237.320312 346.582031 1236.75 347.984375 1236.324219 349.90625 L 1236.3125 349.960938 C 1232.335938 370.171875 1229.703125 382.917969 1228.414062 388.203125 C 1226.445312 387.445312 1224.460938 387.066406 1222.464844 387.066406 C 1220.753906 387.066406 1219.035156 387.34375 1217.304688 387.902344 L 1217.207031 387.933594 C 1212.871094 389.53125 1210.078125 392.332031 1208.820312 396.335938 C 1208.777344 396.46875 1208.75 396.609375 1208.730469 396.746094 C 1207.96875 402.570312 1210.023438 405.796875 1214.902344 406.433594 C 1214.9375 406.4375 1214.972656 406.441406 1215.011719 406.449219 L 1215.378906 406.464844 C 1220.394531 406.304688 1225.011719 404.179688 1229.230469 400.097656 C 1229.351562 399.980469 1229.460938 399.851562 1229.554688 399.710938 C 1230.625 398.128906 1231.675781 395.253906 1232.707031 391.085938 C 1233.816406 387.070312 1236.613281 373.695312 1241.089844 350.957031 L 1241.085938 350.957031 C 1241.320312 349.902344 1241.542969 349.207031 1241.757812 348.863281 L 1241.675781 348.863281 C 1241.863281 348.800781 1242.132812 348.765625 1242.484375 348.765625 C 1243.261719 348.765625 1244.441406 348.925781 1246.027344 349.238281 L 1246.050781 349.242188 C 1268.144531 353.648438 1279.957031 356.152344 1281.5 356.757812 C 1281.679688 356.828125 1281.867188 356.878906 1282.058594 356.90625 L 1282.011719 356.90625 C 1282.007812 357.804688 1281.703125 359.164062 1281.101562 360.984375 L 1281.046875 361.179688 C 1279.410156 367.972656 1275.839844 379.019531 1270.332031 394.320312 C 1268.683594 392.972656 1266.074219 391.929688 1262.5 391.199219 C 1262.335938 391.167969 1262.175781 391.152344 1262.007812 391.152344 C 1261.996094 391.152344 1261.984375 391.152344 1261.972656 391.152344 C 1257.378906 391.222656 1254.050781 392.625 1251.992188 395.363281 L 1251.949219 395.421875 C 1249.605469 398.75 1249.996094 401.921875 1253.117188 404.933594 L 1253.347656 405.132812 C 1255.253906 406.558594 1257.734375 407.269531 1260.796875 407.269531 C 1261.867188 407.269531 1263.003906 407.183594 1264.214844 407.007812 L 1264.359375 406.984375 C 1268.722656 406.085938 1271.542969 404.339844 1272.8125 401.738281 L 1272.914062 401.503906 C 1279.570312 383.296875 1283.84375 370.300781 1285.738281 362.511719 L 1285.730469 362.511719 C 1286.609375 359.855469 1286.984375 357.757812 1286.863281 356.222656 C 1286.824219 355.730469 1286.734375 355.273438 1286.597656 354.859375 C 1286.011719 353.101562 1284.792969 352.167969 1282.941406 352.058594 L 1282.9375 352.058594 C 1282.898438 352.058594 1282.855469 352.054688 1282.816406 352.054688 L 1282.769531 352.054688 C 1279.789062 351.160156 1267.867188 348.628906 1247.007812 344.46875 L 1246.980469 344.464844 L 1246.976562 344.464844 C 1245.207031 344.113281 1243.707031 343.9375 1242.480469 343.9375 Z M 1242.480469 343.9375 " fill-opacity="0.996" fill-rule="nonzero"/></g><path fill="#000000" d="M 1222.6875 389.140625 L 1222.617188 389.144531 C 1222.324219 389.15625 1222.074219 389.207031 1221.867188 389.285156 C 1220.566406 389.789062 1219.792969 390.117188 1219.550781 390.269531 C 1218.542969 390.769531 1217.566406 391.355469 1216.621094 392.027344 C 1214.738281 393.347656 1213.425781 394.742188 1212.683594 396.210938 C 1211.945312 397.894531 1212.03125 399.359375 1212.9375 400.597656 C 1213.289062 401.074219 1213.753906 401.4375 1214.328125 401.699219 C 1214.972656 402 1215.757812 402.140625 1216.683594 402.128906 C 1217.269531 402.113281 1217.886719 402.035156 1218.53125 401.894531 C 1218.898438 401.921875 1219.242188 401.929688 1219.5625 401.914062 C 1219.398438 401.921875 1219.46875 401.914062 1219.769531 401.898438 L 1220.597656 401.773438 L 1221.386719 401.597656 C 1221.902344 401.460938 1222.390625 401.289062 1222.851562 401.078125 C 1223.777344 400.660156 1224.601562 400.101562 1225.320312 399.394531 C 1225.863281 398.878906 1226.25 398.351562 1226.472656 397.8125 C 1226.644531 397.421875 1226.753906 397.105469 1226.808594 396.867188 C 1226.878906 396.527344 1226.910156 396.324219 1226.910156 396.261719 C 1226.917969 396.128906 1226.921875 396 1226.917969 395.871094 L 1226.875 395.871094 C 1227.097656 395.421875 1227.261719 394.832031 1227.363281 394.09375 C 1227.402344 393.292969 1227.308594 392.65625 1227.074219 392.179688 C 1226.960938 391.917969 1226.816406 391.675781 1226.636719 391.449219 C 1226.457031 391.222656 1226.246094 391.011719 1226.003906 390.820312 L 1225.613281 390.546875 C 1225.285156 390.34375 1224.96875 390.210938 1224.660156 390.148438 C 1224.425781 389.828125 1224.136719 389.582031 1223.792969 389.40625 C 1223.449219 389.234375 1223.082031 389.144531 1222.6875 389.140625 " fill-opacity="0.996" fill-rule="nonzero"/><g clip-path="url(#37bcca2579)"><path fill="#000000" d="M 1290.347656 506.921875 C 1293.726562 506.921875 1296.46875 507.988281 1298.574219 510.121094 L 1298.527344 510.121094 L 1298.378906 515.890625 L 1298.375 515.890625 C 1298.28125 517.476562 1298.058594 518.800781 1297.703125 519.863281 L 1297.6875 519.863281 C 1295.167969 525.089844 1290 528.804688 1282.175781 531.011719 C 1277.710938 530.3125 1275.128906 526.875 1274.421875 520.691406 L 1274.394531 520.691406 C 1274.65625 515.070312 1277.605469 510.90625 1283.234375 508.195312 L 1283.1875 508.195312 C 1285.828125 507.347656 1288.214844 506.921875 1290.347656 506.921875 Z M 1373.003906 412.765625 C 1372.777344 412.765625 1372.546875 412.785156 1372.3125 412.816406 C 1371.984375 412.863281 1371.660156 412.945312 1371.335938 413.058594 L 1371.289062 413.058594 C 1330.65625 419.390625 1308.488281 422.726562 1304.78125 423.070312 L 1304.597656 423.09375 C 1302.175781 423.5 1300.441406 424.199219 1299.398438 425.183594 L 1299.394531 425.183594 C 1299.042969 425.519531 1298.757812 425.886719 1298.539062 426.289062 L 1298.503906 426.289062 C 1298.390625 426.464844 1298.285156 426.65625 1298.191406 426.863281 C 1297.613281 428.136719 1297.367188 430.4375 1297.453125 433.769531 L 1297.453125 433.820312 C 1298.554688 457.238281 1299.027344 478.183594 1298.878906 496.660156 L 1298.683594 504.089844 C 1296.292969 502.714844 1293.554688 502.027344 1290.464844 502.027344 C 1287.796875 502.027344 1284.871094 502.539062 1281.683594 503.566406 L 1281.394531 503.679688 C 1273.839844 507.214844 1269.882812 512.8125 1269.523438 520.464844 L 1269.53125 520.824219 C 1270.460938 530.039062 1274.640625 535.070312 1282.074219 535.90625 C 1282.164062 535.917969 1282.253906 535.921875 1282.347656 535.921875 C 1282.5625 535.921875 1282.777344 535.894531 1282.984375 535.835938 C 1292.664062 533.21875 1299.082031 528.488281 1302.234375 521.648438 L 1302.335938 521.394531 C 1302.828125 519.90625 1303.132812 518.140625 1303.25 516.09375 L 1303.253906 516.019531 L 1303.753906 496.742188 L 1303.753906 496.699219 C 1303.90625 478.15625 1303.429688 457.136719 1302.328125 433.644531 C 1302.265625 431.273438 1302.347656 429.738281 1302.570312 429.042969 L 1302.523438 429.042969 C 1302.609375 428.941406 1302.691406 428.835938 1302.761719 428.722656 L 1302.746094 428.722656 C 1303.0625 428.421875 1303.902344 428.15625 1305.273438 427.917969 L 1305.230469 427.917969 C 1309.050781 427.5625 1331.429688 424.199219 1372.367188 417.816406 C 1372.554688 417.789062 1372.738281 417.738281 1372.910156 417.667969 L 1372.960938 417.667969 C 1373.253906 417.886719 1373.59375 418.46875 1373.980469 419.410156 C 1374.949219 421.785156 1375.695312 425.679688 1376.214844 431.101562 L 1376.230469 431.234375 C 1377.476562 439.480469 1378.359375 459.132812 1378.878906 490.191406 L 1378.84375 490.191406 C 1377.1875 489.449219 1375.089844 489.078125 1372.546875 489.078125 C 1370.199219 489.078125 1367.46875 489.394531 1364.359375 490.027344 C 1364.183594 490.0625 1364.011719 490.117188 1363.851562 490.191406 C 1360.027344 491.894531 1357.148438 493.742188 1355.210938 495.726562 C 1350.347656 500.714844 1350.914062 506.121094 1356.910156 511.945312 C 1357.125 512.15625 1357.375 512.324219 1357.652344 512.441406 C 1359.761719 513.34375 1361.996094 513.792969 1364.359375 513.792969 C 1367.085938 513.792969 1369.984375 513.191406 1373.046875 511.988281 C 1379.683594 509.46875 1383.300781 505.980469 1383.894531 501.523438 L 1383.914062 501.171875 C 1383.429688 463.636719 1382.484375 440.128906 1381.070312 430.640625 L 1381.066406 430.640625 C 1380.503906 424.742188 1379.644531 420.386719 1378.496094 417.570312 C 1377.617188 415.429688 1376.492188 414.003906 1375.117188 413.289062 C 1374.441406 412.941406 1373.738281 412.765625 1373.003906 412.765625 Z M 1373.003906 412.765625 " fill-opacity="0.996" fill-rule="nonzero"/></g><path fill="#000000" d="M 1291.699219 504.863281 L 1290.6875 504.902344 C 1290.011719 504.960938 1289.332031 505.070312 1288.648438 505.238281 C 1288.3125 505.25 1287.285156 505.625 1285.5625 506.359375 C 1285.21875 506.457031 1284.179688 507.078125 1282.4375 508.230469 L 1280.640625 509.175781 L 1279.09375 510.214844 C 1278.128906 510.941406 1277.296875 511.726562 1276.601562 512.578125 C 1275.90625 513.425781 1275.347656 514.339844 1274.917969 515.3125 L 1274.378906 516.820312 C 1274.089844 517.855469 1273.933594 518.957031 1273.910156 520.117188 C 1273.890625 520.734375 1273.921875 521.328125 1274.003906 521.890625 C 1274.046875 522.175781 1274.101562 522.449219 1274.167969 522.71875 L 1274.867188 525.128906 C 1275.210938 525.941406 1275.609375 526.683594 1276.066406 527.351562 C 1277.933594 530.0625 1280.5625 531.535156 1283.953125 531.777344 C 1284.609375 531.777344 1285.261719 531.710938 1285.90625 531.574219 C 1287.511719 531.117188 1288.464844 530.761719 1288.769531 530.507812 C 1290.878906 529.269531 1292.472656 527.863281 1293.546875 526.296875 C 1294.636719 526.539062 1295.675781 526.285156 1296.667969 525.527344 C 1297.03125 525.214844 1297.300781 524.945312 1297.472656 524.722656 C 1297.699219 524.457031 1297.933594 524.148438 1298.179688 523.800781 L 1298.132812 523.800781 C 1298.691406 523.609375 1299.128906 523.25 1299.449219 522.722656 C 1299.507812 522.621094 1299.5625 522.511719 1299.605469 522.398438 L 1301.46875 517.660156 C 1301.628906 515.929688 1300.914062 514.925781 1299.328125 514.652344 C 1299.550781 513.777344 1299.671875 513.234375 1299.691406 513.027344 C 1299.726562 512.6875 1299.746094 512.359375 1299.75 512.042969 C 1299.765625 511.925781 1299.75 511.886719 1299.703125 511.925781 C 1299.859375 511.460938 1299.914062 511.089844 1299.863281 510.808594 C 1299.84375 510.589844 1299.792969 510.371094 1299.710938 510.15625 C 1299.585938 510.058594 1299.40625 509.640625 1299.171875 508.90625 L 1298.75 508.121094 C 1297.273438 506.105469 1294.921875 505.019531 1291.699219 504.863281 " fill-opacity="0.996" fill-rule="nonzero"/></svg>